# xmcd CD database file
#
# Track frame offsets:
#	150
#	22459
#	38416
#	56016
#	81519
#	100848
#	114003
#	135722
#	163252
#	185977
#	207886
#	228284
#	246813
#	267036
#
# Disc length: 3784 seconds
#
# Revision: 1
# Processed by: cddbd v1.5.2PL0 Copyright (c) Steve Scherf et al.
# Submitted via: CDex 1.51
#
DISCID=c10ec60e
DTITLE=Artistas Colombianos - Neotropical
DYEAR=1900
DGENRE=New Latin
TTITLE0=Sidestepper - Luna Llena
TTITLE1=Liliana Montes - Bambazú
TTITLE2=Banda La República - Como Me Da La Gana
TTITLE3=Mandrágora - Los Sabores Del Porro
TTITLE4=TumbaCatre - Ni Frito Ni Asao
TTITLE5=Alé Kumá - Negro Mirar
TTITLE6=Grupo Bahía - Con El Corazón
TTITLE7=Pablo Mayor - Folklore Urbano - Cumbia Sobre El Mar
TTITLE8=Totó La Momposina - Manita Uribe
TTITLE9=La Cumbiamba eNeYé - Chicharrón Peluo
TTITLE10=Járanatambó - Dos De Febrero
TTITLE11=Héctor Buitrago - Damaquiel
TTITLE12=Mojarra Eléctrica - El Hueco (Remix)
TTITLE13=Choc Quib Town - San Antonio
EXTD=
EXTT0=
EXTT1=
EXTT2=
EXTT3=
EXTT4=
EXTT5=
EXTT6=
EXTT7=
EXTT8=
EXTT9=
EXTT10=
EXTT11=
EXTT12=
EXTT13=
PLAYORDER=
